# xmcd
#
# Track frame offsets: 
#        182
#        17212
#        30107
#        49425
#        61355
#        74432
#        87217
#        99600
#        108370
#        124225
#        137925
#        160812
#        174837
#        189647
#        198960
#        213487
#        227462
#        238542
#        254042
#
# Disc length: 3599 seconds
#
# Revision: 2
# Processed by: cddbd v1.5.1PL0 Copyright (c) Steve Scherf et al.
# Submitted via: ExactAudioCopy v0.95b3
#
DISCID=0b0e0d13
DTITLE=Carl Sonny Leyland - From boogie to Rock'n'rRoll
DYEAR=1995
DGENRE=Blues
TTITLE0=Pinetop's Boogie Woogie 
TTITLE1=Cat And Mouse Boogie
TTITLE2=The Axe Is Falling
TTITLE3=New Yancey Stomp
TTITLE4=Back To The Boogie
TTITLE5=Beat Me Daddy 8 To The Bar
TTITLE6=Jook It Jook It
TTITLE7=End Of The Road
TTITLE8=Rock And Roll Ruby
TTITLE9=Gulf Stream Special
TTITLE10=Night Time Is The Right Time
TTITLE11=Tuesday Struggle 
TTITLE12=Drinkin' Wine Spodee-Odee
TTITLE13=Pig Foot Pete
TTITLE14=Jimmy's Stuff 
TTITLE15=Brown Skin Girls
TTITLE16=Couscous Boogie 
TTITLE17=Chattanoogie
TTITLE18=What'd I say
EXTD=
EXTT0=
EXTT1=
EXTT2=
EXTT3=
EXTT4=
EXTT5=
EXTT6=
EXTT7=
EXTT8=
EXTT9=
EXTT10=
EXTT11=
EXTT12=
EXTT13=
EXTT14=
EXTT15=
EXTT16=
EXTT17=
EXTT18=
PLAYORDER=
